# xmcd
# 
# Track frame offsets:
#     182
#     22905
#     44820
#     62310
#     83462
#     104407
#     123815
#     143200
#     162055
#     182825
#     201967
#     223760
# 
# Disc length: 3271
# 
# Revision: 1
# Processed by: cddbd v1.5.2PL0 Copyright (c) Steve Scherf et al.
# Submitted via: fre:ac v1.0.31
# 
DISCID=9f0cc50c
DTITLE=Various Artist - OID MORTALES EL COMPILADO
DYEAR=1995
DGENRE=Club-House
TTITLE0=MERCOSUR FT POPPY - ARGENTINA (A BAILAR)
TTITLE1=CHIQUETERE BAND - CHIQUETERE (DJ DERO RMX)
TTITLE2=EL SANTO - VEN HACIA MI
TTITLE3=AFRIKA BAMBAATAA - PUPUNANNY
TTITLE4=TOYS and DOLLS - TESKO LOVERS
TTITLE5=DJ DERO - CON QUE TE MUEVES HEY (SARINA'S MIX)
TTITLE6=LANOTTE FT MONSTERS - RETURN TO INNOCENCE
TTITLE7=RANDUI BUSH - FOREIGN AFFAIR
TTITLE8=MERCOSUR - PIANOTERE
TTITLE9=PARAJE - ANIMALECTION
TTITLE10=2 IN A ROOM FT THE WEPA MAN - EL TRAGO
TTITLE11=THE TRIBE - GO SAN DO
EXTD=
EXTT0=
EXTT1=
EXTT2=
EXTT3=
EXTT4=
EXTT5=
EXTT6=
EXTT7=
EXTT8=
EXTT9=
EXTT10=
EXTT11=
PLAYORDER=
